<?xml version="1.0" standalone="no"?>
<!DOCTYPE svg PUBLIC "-//W3C//DTD SVG 1.1//EN" "http://www.w3.org/Graphics/SVG/1.1/DTD/svg11.dtd" >
<svg xmlns="http://www.w3.org/2000/svg" xmlns:xlink="http://www.w3.org/1999/xlink" version="1.1">
<metadata>
Created by FontForge 20200314 at Fri Dec  5 23:21:56 2014
 By Unknown
Copyright (c) 2014 Typotheque.com All rights reserved.
</metadata>
<defs>
<font id="Neue-RegularItalic" horiz-adv-x="657" >
  <font-face 
    font-family="Neue"
    font-weight="400"
    font-style="italic"
    font-stretch="normal"
    units-per-em="1000"
    panose-1="2 11 5 4 0 0 0 9 0 3"
    ascent="750"
    descent="-250"
    x-height="556"
    cap-height="800"
    bbox="-94 -217 1312 1039"
    underline-thickness="50"
    underline-position="-100"
    slope="-8"
    unicode-range="U+0020-20AC"
  />
<missing-glyph horiz-adv-x="280" 
 />
    <glyph glyph-name=".notdef" horiz-adv-x="280" 
 />
    <glyph glyph-name=".null" horiz-adv-x="0" 
 />
    <glyph glyph-name="nonmarkingreturn" horiz-adv-x="333" 
 />
    <glyph glyph-name="space" unicode=" " horiz-adv-x="280" 
 />
    <glyph glyph-name="space" unicode="&#xa0;" horiz-adv-x="280" 
 />
    <glyph glyph-name="exclam" unicode="!" horiz-adv-x="326" 
d="M130 486l44 314h108l-44 -314l-34 -206h-98zM84 153h108l-22 -153h-108z" />
    <glyph glyph-name="quotedbl" unicode="&#x22;" horiz-adv-x="477" 
d="M196 532h-92l36 300h106zM425 532h-92l37 300h106z" />
    <glyph glyph-name="numbersign" unicode="#" horiz-adv-x="870" 
d="M513 179h-251l-45 -179h-98l45 179h-125l12 82h133l71 279h-165l11 82h175l45 178h98l-45 -178h251l45 178h99l-45 -178h125l-11 -82h-135l-71 -279h167l-12 -82h-176l-45 -179h-98zM282 261h251l71 279h-251z" />
    <glyph glyph-name="dollar" unicode="$" horiz-adv-x="631" 
d="M223 -15q-60 3 -114.5 16.5t-95.5 33.5l28 95q43 -23 91 -35.5t104 -14.5l41 290q-35 13 -69 29t-60.5 38.5t-43 53t-16.5 73.5q0 55 20 98t54.5 74t80 50t96.5 26l12 83h84l-12 -80q63 -3 115.5 -19t87.5 -39l-33 -93q-32 21 -80.5 36.5t-102.5 19.5l-40 -284
q37 -14 73 -30t64.5 -38.5t46 -53t17.5 -73.5q0 -49 -19.5 -92t-54 -76.5t-83.5 -55.5t-107 -29l-11 -80h-84zM466 224q0 22 -8.5 39.5t-23.5 31t-35 24.5t-43 21l-36 -256q27 6 53 17t47 28.5t33.5 41t12.5 53.5zM188 579q0 -42 29 -67.5t74 -45.5l35 250q-29 -6 -54 -17.5
t-44 -29t-29.5 -40t-10.5 -50.5z" />
    <glyph glyph-name="percent" unicode="%" horiz-adv-x="1163" 
d="M875 799h94l-666 -799h-95zM160 541q0 -60 28.5 -95.5t83.5 -35.5q32 0 61 10.5t51.5 34.5t36 64t13.5 99q0 26 -5.5 49t-19 39.5t-36 26t-56.5 9.5q-43 0 -73 -18t-48.5 -47t-27 -64.5t-8.5 -71.5zM328 815q51 0 88 -14.5t60.5 -40t35 -60.5t11.5 -75
q0 -137 -65.5 -212.5t-196.5 -75.5q-45 0 -80 14.5t-59 40.5t-36.5 61.5t-12.5 77.5q0 61 16 113.5t48.5 90t80 59t110.5 21.5zM746 187q0 -60 28 -95t84 -35q31 0 60.5 10.5t51.5 34.5t35.5 63.5t13.5 98.5q0 26 -5.5 49t-19 39.5t-36 26t-56.5 9.5q-43 0 -73 -18
t-48.5 -47t-26.5 -64.5t-8 -71.5zM914 461q51 0 87.5 -14.5t60 -40t35 -60.5t11.5 -75q0 -135 -66 -211t-196 -76q-46 0 -81 14.5t-59 40.5t-36 61t-12 77q0 61 16.5 113.5t48.5 90t80 59t111 21.5z" />
    <glyph glyph-name="ampersand" unicode="&#x26;" horiz-adv-x="837" 
d="M747 344q-23 -65 -57.5 -119.5t-79.5 -97.5q39 -17 79.5 -27.5t81.5 -12.5l-11 -87q-60 0 -118 16t-113 45q-58 -38 -121.5 -57.5t-127.5 -19.5q-54 0 -99.5 12.5t-79 37t-52 61t-18.5 84.5q0 49 14 86t38 65t56 48t68 35q-28 73 -28 138q0 57 19 106t55 84t88 55t118 20
q47 0 84 -14t62.5 -37.5t38.5 -54.5t13 -65q0 -68 -30.5 -111.5t-78.5 -72t-106.5 -47t-115.5 -36.5q37 -61 91.5 -116t120.5 -96q47 44 83 101t58 120zM269 556q0 -27 6.5 -55t17.5 -57q51 16 100 30.5t87.5 34t62 48t23.5 72.5q0 55 -35.5 82t-89.5 27q-36 0 -67 -11.5
t-54.5 -34.5t-37 -57t-13.5 -79zM307 64q39 0 77 11t73 31q-69 48 -124 109.5t-93 128.5q-50 -23 -81.5 -58t-31.5 -92q0 -35 13 -59.5t37 -40t57 -23t73 -7.5z" />
    <glyph glyph-name="quotesingle" unicode="'" horiz-adv-x="247" 
d="M196 532h-92l36 300h106z" />
    <glyph glyph-name="parenleft" unicode="(" horiz-adv-x="350" 
d="M395 814q-53 -47 -101 -107t-84.5 -131t-58 -151t-21.5 -165q0 -61 10.5 -117.5t29 -107t43.5 -94.5t53 -79l-61 -49q-37 37 -67 85.5t-51.5 105.5t-33.5 120t-12 130q0 85 22 170.5t62.5 165.5t97 150.5t126.5 125.5z" />
    <glyph glyph-name="parenright" unicode=")" horiz-adv-x="351" 
d="M150 866q31 -27 60.5 -74t52 -105.5t36.5 -125.5t14 -134q0 -84 -23.5 -169.5t-65 -165t-99 -151t-125.5 -128.5l-47 49q54 51 103 116t86.5 138t59.5 151.5t22 157.5q0 59 -12 117t-31.5 109t-43.5 93t-48 70z" />
    <glyph glyph-name="asterisk" unicode="*" horiz-adv-x="524" 
d="M345 551l85 -138l-60 -40l-85 136l-124 -135l-48 40l124 136l-150 52l29 64l148 -47l20 157h72l-24 -156l165 42l11 -64z" />
    <glyph glyph-name="plus" unicode="+" horiz-adv-x="582" 
d="M331 357h209l-10 -71h-209l-30 -212h-71l30 212h-212l10 71h212l29 209h71z" />
    <glyph glyph-name="comma" unicode="," horiz-adv-x="270" 
d="M-19 -121l85 283h115l-125 -283h-75z" />
    <glyph glyph-name="hyphen" unicode="-" horiz-adv-x="464" 
d="M66 264l11 81h312l-11 -81h-312z" />
    <glyph glyph-name="hyphen" unicode="&#xad;" horiz-adv-x="464" 
d="M66 264l11 81h312l-11 -81h-312z" />
    <glyph glyph-name="period" unicode="." horiz-adv-x="262" 
d="M52 154h109l-21 -154h-109z" />
    <glyph glyph-name="slash" unicode="/" horiz-adv-x="518" 
d="M460 800h86l-470 -800h-85z" />
    <glyph glyph-name="zero" unicode="0" horiz-adv-x="731" 
d="M64 295q0 57 8 118t26 119t47 109.5t70 90.5t95.5 61.5t124.5 22.5q69 0 116.5 -22.5t77.5 -63.5t43 -98.5t13 -127.5q0 -57 -8 -118t-25.5 -118.5t-45.5 -109t-69 -90t-95 -61t-124 -22.5q-69 0 -117 22t-78.5 62.5t-44.5 98t-14 127.5zM424 725q-49 0 -87 -19
t-66.5 -51t-48 -74.5t-31.5 -89t-17.5 -95.5t-5.5 -93q0 -112 40.5 -169.5t121.5 -57.5q73 0 121.5 41.5t77.5 105t40.5 138t11.5 140.5q0 51 -8 92t-26 70.5t-48 45.5t-75 16z" />
    <glyph glyph-name="one" unicode="1" horiz-adv-x="569" 
d="M9 0l13 93h205l85 608l-210 -33l13 94l295 54h19l-101 -723h199l-14 -93h-504z" />
    <glyph glyph-name="two" unicode="2" horiz-adv-x="635" 
d="M19 0l13 95q37 32 86 71.5t99.5 83t99.5 89.5t87.5 91.5t62 89.5t23.5 84q0 26 -9 48.5t-28 39t-48.5 26t-70.5 9.5q-24 0 -54.5 -4t-61.5 -11.5t-61.5 -17.5t-54.5 -21l-1 83q53 26 118.5 43t134.5 17q54 0 99 -12.5t76.5 -36.5t49 -60.5t17.5 -84.5q0 -47 -22 -96
t-58 -97.5t-83 -95.5t-98 -90t-101 -80.5t-93 -67.5v-2h419l-13 -93h-528z" />
    <glyph glyph-name="three" unicode="3" horiz-adv-x="630" 
d="M599 632q0 -38 -15.5 -71.5t-44 -61.5t-69.5 -49.5t-91 -34.5v-2q85 -11 128.5 -54t43.5 -115q0 -56 -24 -103.5t-67 -82t-103 -54t-132 -19.5q-62 0 -116 12.5t-95 34.5l17 89q22 -12 48.5 -20.5t54.5 -14.5t55 -9t51 -3q53 0 91.5 14t64 36.5t37.5 50.5t12 55
q0 69 -54 102.5t-150 33.5h-10.5t-11.5 -1l-1 72q60 11 110.5 27.5t87 38t57 48t20.5 57.5q0 24 -9 46t-28 38t-48.5 25.5t-71.5 9.5q-49 1 -104 -16t-118 -47l-1 90q54 31 112.5 46.5t130.5 15.5q116 0 179.5 -48.5t63.5 -135.5z" />
    <glyph glyph-name="four" unicode="4" horiz-adv-x="660" 
d="M491 172l-24 -172h-103l23 172h-376l14 103l322 525h115l-338 -538h276l30 214h104l-31 -214h124l-13 -90h-123z" />
    <glyph glyph-name="five" unicode="5" horiz-adv-x="635" 
d="M459 231q0 46 -25 77.5t-71.5 50.5t-114 28t-152.5 11l65 402h462l-14 -93h-365l-37 -230q77 -2 142.5 -14t113.5 -39t75.5 -70t27.5 -107q0 -62 -24 -110.5t-66.5 -82.5t-100 -51.5t-124.5 -17.5q-57 0 -115.5 11t-115.5 40l17 91q48 -26 105.5 -40t119.5 -14
q40 0 76 8.5t63 27t42.5 48.5t15.5 74z" />
    <glyph glyph-name="six" unicode="6" horiz-adv-x="674" 
d="M630 711q-15 2 -31.5 2.5t-28.5 0.5q-72 0 -136 -20.5t-115 -59.5t-87.5 -95t-55.5 -127q50 35 109.5 54t122.5 19q43 0 81.5 -12.5t67 -37t45 -61t16.5 -84.5q0 -67 -22.5 -123.5t-64.5 -97.5t-101.5 -64t-133.5 -23q-60 0 -106 19t-76.5 53.5t-46 83.5t-15.5 109
q0 124 41 228t111 179t163.5 117t197.5 42q15 0 26 -1t21 -1zM371 398q-53 0 -110 -22t-101 -54q-1 -14 -1.5 -28t-0.5 -28q0 -94 37 -145t118 -51q49 0 86.5 15.5t62.5 42.5t37.5 63.5t12.5 77.5q0 66 -39 97.5t-102 31.5z" />
    <glyph glyph-name="seven" unicode="7" horiz-adv-x="575" 
d="M99 0l395 707h-430l26 93h533l3 -33l-418 -767h-109z" />
    <glyph glyph-name="eight" unicode="8" horiz-adv-x="700" 
d="M42 177q0 46 15.5 84t41 67.5t59 51t70.5 36.5q-25 12 -46.5 26t-37.5 32t-25 41t-9 52q0 60 28 106.5t73 78t102 48t115 16.5q51 0 95 -13.5t77 -38t51.5 -59.5t18.5 -78q0 -40 -14 -72t-38 -57.5t-55.5 -45t-66.5 -33.5q26 -12 49 -26.5t40 -33t27 -42.5t10 -55
q0 -68 -29.5 -120t-77 -87t-106.5 -53t-117 -18q-47 0 -92 12.5t-80 36.5t-56.5 60t-21.5 84zM517 237q0 30 -17 51.5t-45 38t-64 29t-74 25.5q-27 -9 -57.5 -25t-56.5 -37.5t-43.5 -50t-17.5 -63.5q0 -32 13.5 -57t37.5 -42t56 -26t68 -9q35 0 70.5 10t64.5 30t47 51.5
t18 74.5zM213 592q0 -30 16 -50.5t42 -36.5t60.5 -28t70.5 -24q29 11 58.5 25t53 32t38.5 41.5t15 54.5q0 29 -12.5 52t-34 38.5t-51 24t-62.5 8.5q-34 0 -68.5 -8t-62.5 -24.5t-45.5 -42.5t-17.5 -62z" />
    <glyph glyph-name="nine" unicode="9" horiz-adv-x="671" 
d="M63 88q15 -1 31.5 -1.5t28.5 -0.5q146 0 247 74t140 214q-46 -32 -98.5 -49t-119.5 -17q-47 0 -86.5 15t-69 42t-46 63.5t-16.5 79.5q0 67 22.5 123.5t63.5 97.5t99 64t130 23q63 0 110 -20.5t77.5 -56.5t45.5 -85.5t15 -107.5q0 -70 -15 -139t-44.5 -131t-73 -115
t-100 -91.5t-126 -60.5t-150.5 -22q-15 0 -26 0.5t-21 1.5zM319 395q60 0 113 21t95 53q0 2 0.5 3.5t0.5 3.5q13 123 -25.5 187t-131.5 64q-46 0 -81.5 -14.5t-60 -41t-37 -62.5t-12.5 -78q0 -63 35.5 -99.5t103.5 -36.5z" />
    <glyph glyph-name="colon" unicode=":" horiz-adv-x="261" 
d="M51 154h109l-22 -154h-109zM110 573h109l-22 -154h-109z" />
    <glyph glyph-name="semicolon" unicode=";" horiz-adv-x="296" 
d="M135 572h109l-21 -154h-109zM-10 -121l86 283h114l-126 -283h-74z" />
    <glyph glyph-name="less" unicode="&#x3c;" horiz-adv-x="540" 
d="M492 487l-367 -177l319 -165l-13 -88l-400 215l11 82l462 228z" />
    <glyph glyph-name="equal" unicode="=" horiz-adv-x="579" 
d="M87 381l10 70h417l-10 -70h-417zM58 178l10 70h417l-10 -70h-417z" />
    <glyph glyph-name="greater" unicode="&#x3e;" horiz-adv-x="541" 
d="M105 581l398 -230l-11 -83l-460 -210l13 91l365 165l-318 178z" />
    <glyph glyph-name="question" unicode="?" horiz-adv-x="618" 
d="M157 153h109l-20 -153h-109zM198 407q86 13 143.5 31.5t92.5 41.5t50 51.5t15 62.5q0 63 -43.5 93t-110.5 30q-62 0 -120.5 -13.5t-118.5 -44.5l-10 92q61 32 130.5 48.5t141.5 16.5q51 0 94.5 -13t76 -38.5t51 -63.5t18.5 -89q0 -58 -21.5 -101t-62 -74t-98.5 -51.5
t-131 -34.5l-12 -83h-104z" />
    <glyph glyph-name="at" unicode="@" horiz-adv-x="896" 
d="M522 189q-32 -41 -71.5 -62.5t-82.5 -21.5q-52 0 -84 37.5t-32 97.5q0 54 16 100.5t48 81t80 54.5t111 20q31 0 69.5 -7t69.5 -20l-59 -231q-1 -5 -1 -13q0 -20 13.5 -30.5t33.5 -10.5q30 0 56.5 17.5t47 47t32 68t11.5 81.5q0 52 -18.5 94.5t-53 72.5t-84 46.5
t-110.5 16.5q-83 0 -152.5 -24t-120 -72t-78.5 -119t-28 -164q0 -73 23 -125.5t63.5 -86t95.5 -49.5t118 -16q51 0 113 10.5t120 33.5l-14 -76q-60 -24 -119.5 -34.5t-115.5 -10.5q-75 0 -142 20.5t-117 62t-79 104.5t-29 148q0 117 35 206t98 149t150.5 90.5t191.5 30.5
q74 0 135.5 -22t105.5 -61t68.5 -92.5t24.5 -116.5q0 -68 -18.5 -123.5t-50.5 -95t-75.5 -61t-94.5 -21.5q-16 0 -32 2.5t-30 9.5t-23.5 18.5t-12.5 28.5q-2 10 -2 17zM395 184q27 0 57.5 16.5t55.5 48.5l45 166q-17 7 -33 9t-30 2q-24 0 -51 -8.5t-50.5 -27.5t-39 -51.5
t-15.5 -80.5q0 -40 20 -57t41 -17z" />
    <glyph glyph-name="A" unicode="A" horiz-adv-x="769" 
d="M531 255h-337l-135 -255h-104l438 800h98l207 -800h-106zM240 341h271l-84 352z" />
    <glyph glyph-name="B" unicode="B" horiz-adv-x="704" 
d="M157 800h254q65 0 112.5 -15t77.5 -43t41.5 -66.5t4.5 -85.5q-9 -65 -49.5 -113.5t-110.5 -72.5q63 -23 90 -71.5t18 -116.5q-7 -46 -29.5 -85.5t-60 -68.5t-89.5 -45.5t-117 -16.5h-255zM198 359l-38 -269h154q40 0 70.5 10.5t52.5 29t34.5 43t16.5 51.5q8 59 -25 97
t-111 38h-154zM248 710l-38 -269h153q39 0 70 11t52.5 29t34.5 42.5t17 51.5q8 58 -25.5 96.5t-110.5 38.5h-153z" />
    <glyph glyph-name="B" unicode="&#xe000;" horiz-adv-x="704" 
d="M157 800h254q65 0 112.5 -15t77.5 -43t41.5 -66.5t4.5 -85.5q-9 -65 -49.5 -113.5t-110.5 -72.5q63 -23 90 -71.5t18 -116.5q-7 -46 -29.5 -85.5t-60 -68.5t-89.5 -45.5t-117 -16.5h-255zM198 359l-38 -269h154q40 0 70.5 10.5t52.5 29t34.5 43t16.5 51.5q8 59 -25 97
t-111 38h-154zM248 710l-38 -269h153q39 0 70 11t52.5 29t34.5 42.5t17 51.5q8 58 -25.5 96.5t-110.5 38.5h-153z" />
    <glyph glyph-name="C" unicode="C" horiz-adv-x="714" 
d="M629 36q-45 -25 -102 -38.5t-117 -13.5q-79 0 -143.5 24.5t-111 70.5t-72 112.5t-25.5 149.5q0 106 36 193.5t99.5 150t150 97t187.5 34.5q51 0 101.5 -11.5t88.5 -35.5l-22 -89q-36 21 -82.5 32t-92.5 11q-74 0 -139 -24t-113.5 -71t-76.5 -116t-28 -159q0 -133 72 -204
t196 -71q48 0 100 12.5t94 34.5v-89z" />
    <glyph glyph-name="D" unicode="D" horiz-adv-x="822" 
d="M158 800h261q83 0 152 -30.5t116.5 -84.5t69.5 -127t10 -158q-12 -83 -54.5 -156t-105 -127t-140.5 -85.5t-161 -31.5h-261zM249 708l-87 -616h157q69 0 128 24.5t104.5 66.5t74.5 98t38 119t-5 119t-47.5 98t-85.5 66.5t-120 24.5h-157z" />
    <glyph glyph-name="E" unicode="E" horiz-adv-x="634" 
d="M159 800h498l-13 -92h-394l-38 -263h277l-13 -90h-276l-37 -263h394l-13 -92h-498z" />
    <glyph glyph-name="E" unicode="&#xe001;" horiz-adv-x="634" 
d="M159 800h498l-13 -92h-394l-38 -263h277l-13 -90h-276l-37 -263h394l-13 -92h-498z" />
    <glyph glyph-name="F" unicode="F" horiz-adv-x="601" 
d="M199 352l-49 -352h-104l113 800h499l-13 -92h-395l-38 -263h278l-13 -93h-278z" />
    <glyph glyph-name="G" unicode="G" horiz-adv-x="790" 
d="M674 37q-41 -24 -109.5 -38.5t-151.5 -14.5q-78 0 -143.5 27t-113 74.5t-73.5 112.5t-26 142q0 93 33 179t95 152t151 105.5t202 39.5q33 0 66.5 -3.5t65 -10t58 -15.5t44.5 -21l-24 -94q-20 12 -47.5 21.5t-58.5 15.5t-62 9.5t-57 3.5q-77 0 -143 -28t-114.5 -77.5
t-76 -118t-27.5 -149.5q0 -65 20.5 -115t57 -85t87.5 -53t112 -18q32 0 70 5.5t70 13.5l34 250h-176l13 90h279l-55 -400v0z" />
    <glyph glyph-name="H" unicode="H" horiz-adv-x="917" 
d="M703 355h-503l-50 -355h-104l113 800h104l-50 -352h503l50 352h104l-113 -800h-104z" />
    <glyph glyph-name="I" unicode="I" horiz-adv-x="310" 
d="M160 800h104l-113 -800h-104z" />
    <glyph glyph-name="J" unicode="J" horiz-adv-x="447" 
d="M300 800h104l-66 -467q-11 -74 -38 -135.5t-73 -105.5t-113 -68t-157 -24l13 88q69 0 116.5 20t78 53.5t46.5 78t23 93.5z" />
    <glyph glyph-name="K" unicode="K" horiz-adv-x="675" 
d="M159 800h104l-51 -361l388 361h134l-439 -392l326 -408h-141l-279 362l-51 -362h-104z" />
    <glyph glyph-name="L" unicode="L" horiz-adv-x="586" 
d="M46 0l113 800h104l-100 -708h349l-13 -92h-453z" />
    <glyph glyph-name="M" unicode="M" horiz-adv-x="1089" 
d="M232 585l-82 -585h-104l113 800h104l236 -680l438 680l1 -1v1h104l-113 -800h-104l85 601l-389 -601h-80z" />
    <glyph glyph-name="N" unicode="N" horiz-adv-x="950" 
d="M241 643l-91 -643h-104l113 800h97l451 -658l93 658h103l-113 -800h-107z" />
    <glyph glyph-name="O" unicode="O" horiz-adv-x="915" 
d="M59 348q0 99 34.5 184.5t96 148.5t146.5 99t186 36q78 0 143 -25.5t111.5 -72.5t72.5 -113.5t26 -149.5q0 -105 -36 -191.5t-99 -149t-147.5 -96.5t-181.5 -34q-77 0 -142 26.5t-111.5 74.5t-72.5 115t-26 148zM510 727q-75 0 -138 -27.5t-109 -77t-72 -117t-26 -147.5
q0 -65 19 -118t53.5 -90t82.5 -57t105 -20q75 0 138 28t109 77.5t71.5 117t25.5 146.5q0 68 -19 121t-53 89.5t-82 55.5t-105 19z" />
    <glyph glyph-name="P" unicode="P" horiz-adv-x="672" 
d="M159 800h273q58 0 101 -18t70.5 -49.5t38.5 -74.5t4 -92q-8 -53 -33.5 -97t-64 -76t-85.5 -49.5t-98 -17.5h-169l-46 -326h-104zM250 708l-42 -294h147q40 0 72 12t55.5 33t37.5 48t19 57q4 31 -3 57t-25 45.5t-46.5 30.5t-67.5 11h-147z" />
    <glyph glyph-name="Q" unicode="Q" horiz-adv-x="900" 
d="M59 348q0 99 34.5 184.5t96 148.5t146.5 99t186 36q78 0 143 -25.5t111.5 -72.5t72.5 -113.5t26 -149.5q0 -101 -33 -184t-90 -145l98 -126h-107l-55 70q-58 -42 -128.5 -64t-148.5 -22q-77 0 -142 26.5t-111.5 74.5t-72.5 115t-26 148zM510 727q-75 0 -138 -27.5
t-109 -77t-72 -117t-26 -147.5q0 -65 19 -118t53.5 -90t82.5 -57t105 -20q60 0 112 18t95 50l-185 237h109l136 -175q37 48 57 108.5t20 130.5q0 68 -19 121t-53 89.5t-82 55.5t-105 19z" />
    <glyph glyph-name="R" unicode="R" horiz-adv-x="689" 
d="M159 800h273q58 0 101 -18t70.5 -49.5t38.5 -74.5t4 -92q-6 -41 -23.5 -77t-43 -65t-58 -50.5t-69.5 -33.5l114 -340h-116l-102 326h-152l-46 -326h-104zM250 708l-42 -294h147q40 0 72 12t55.5 33t37.5 48t19 57q4 31 -3 57t-25 45.5t-46.5 30.5t-67.5 11h-147z" />
    <glyph glyph-name="S" unicode="S" horiz-adv-x="615" 
d="M445 221q0 42 -26 68t-65.5 45t-85 35.5t-85 40.5t-65.5 60t-26 93q0 63 24 110t65 79t95 48t114 16q71 0 125 -17t92 -42l-33 -88q-37 24 -87.5 40t-113.5 16q-36 0 -68.5 -9.5t-57.5 -28.5t-39.5 -46t-14.5 -62q0 -41 26.5 -67t66 -46t85.5 -37.5t85.5 -41.5t66 -59
t26.5 -89q0 -61 -24 -108.5t-65.5 -80t-97 -49.5t-117.5 -17q-69 0 -124 13t-101 36l19 93q51 -26 102.5 -38.5t119.5 -12.5q39 0 72.5 10.5t58.5 29.5t39 46t14 60z" />
    <glyph glyph-name="S" unicode="&#xe002;" horiz-adv-x="615" 
d="M445 221q0 42 -26 68t-65.5 45t-85 35.5t-85 40.5t-65.5 60t-26 93q0 63 24 110t65 79t95 48t114 16q71 0 125 -17t92 -42l-33 -88q-37 24 -87.5 40t-113.5 16q-36 0 -68.5 -9.5t-57.5 -28.5t-39.5 -46t-14.5 -62q0 -41 26.5 -67t66 -46t85.5 -37.5t85.5 -41.5t66 -59
t26.5 -89q0 -61 -24 -108.5t-65.5 -80t-97 -49.5t-117.5 -17q-69 0 -124 13t-101 36l19 93q51 -26 102.5 -38.5t119.5 -12.5q39 0 72.5 10.5t58.5 29.5t39 46t14 60z" />
    <glyph glyph-name="T" unicode="T" horiz-adv-x="680" 
d="M434 708l-100 -708h-103l100 708h-298l13 92h700l-13 -92h-299z" />
    <glyph glyph-name="U" unicode="U" horiz-adv-x="910" 
d="M875 800l-60 -428q-12 -83 -47.5 -154t-90.5 -123.5t-126 -82.5t-154 -30t-146 27t-103.5 77.5t-56 122.5t-2.5 163l60 428h103l-59 -418q-10 -69 -1.5 -126t35.5 -97.5t72.5 -62.5t110.5 -22q64 0 116 24t90.5 65.5t62.5 97.5t33 121l59 418h104z" />
    <glyph glyph-name="V" unicode="V" horiz-adv-x="770" 
d="M341 102l376 698h103l-439 -800h-108l-207 800h107z" />
    <glyph glyph-name="W" unicode="W" horiz-adv-x="1204" 
d="M876 0h-106l-132 665l-319 -665h-106l-142 800h113l103 -683l321 683h102l128 -684l304 684h104z" />
    <glyph glyph-name="X" unicode="X" horiz-adv-x="750" 
d="M426 400l250 -400h-121l-190 330l-282 -330h-121l361 400l-249 400h121l189 -330l284 330h121z" />
    <glyph glyph-name="Y" unicode="Y" horiz-adv-x="724" 
d="M358 383l315 417h107l-382 -504l-42 -296h-104l42 295l-234 505h115z" />
    <glyph glyph-name="Z" unicode="Z" horiz-adv-x="653" 
d="M-7 0l10 79l513 628h-426l13 93h552l-10 -67l-521 -640h435l-13 -93h-553z" />
    <glyph glyph-name="a" unicode="a" horiz-adv-x="640" 
d="M512 0h-94l14 103q-48 -63 -97.5 -91.5t-112.5 -28.5q-47 0 -82 15t-58 41.5t-35 62.5t-12 79q0 78 18.5 149t60.5 125t109 86t163 32q31 0 79.5 -4.5t124.5 -18.5zM244 65q27 0 55 15t55 39t51.5 55t45.5 63l34 239q-37 8 -65 11t-53 3q-62 0 -106.5 -23t-73 -62
t-42.5 -91t-14 -110q0 -40 10 -67t26 -43t36.5 -22.5t40.5 -6.5z" />
    <glyph glyph-name="b" unicode="b" horiz-adv-x="654" 
d="M151 832h94l-53 -377q48 57 100.5 87.5t114.5 30.5q47 0 83.5 -15.5t61 -43.5t37.5 -67t13 -85q0 -68 -16 -136t-56.5 -122t-110.5 -87.5t-177 -33.5q-8 0 -21.5 0.5t-36.5 2t-59 5t-90 9.5zM390 490q-52 0 -107 -38t-106 -100l-38 -276q43 -7 78.5 -9t52.5 -2
q60 0 104.5 21.5t73.5 59.5t43 89t14 111q0 39 -9.5 66.5t-25 45t-36.5 25t-44 7.5z" />
    <glyph glyph-name="b" unicode="&#xe003;" horiz-adv-x="654" 
d="M151 832h94l-53 -377q48 57 100.5 87.5t114.5 30.5q47 0 83.5 -15.5t61 -43.5t37.5 -67t13 -85q0 -68 -16 -136t-56.5 -122t-110.5 -87.5t-177 -33.5q-8 0 -21.5 0.5t-36.5 2t-59 5t-90 9.5zM390 490q-52 0 -107 -38t-106 -100l-38 -276q43 -7 78.5 -9t52.5 -2
q60 0 104.5 21.5t73.5 59.5t43 89t14 111q0 39 -9.5 66.5t-25 45t-36.5 25t-44 7.5z" />
    <glyph glyph-name="c" unicode="c" horiz-adv-x="534" 
d="M360 490q-56 0 -98.5 -19t-71 -53t-43 -81t-14.5 -102q0 -45 13.5 -77t36.5 -52.5t53 -30.5t63 -10q44 0 78.5 5.5t74.5 19.5l-9 -82q-35 -14 -73.5 -19.5t-87.5 -5.5q-51 0 -96 15t-78.5 44t-52.5 73t-19 102q0 67 18 131.5t58 114t102.5 80t152.5 30.5q35 0 74.5 -4.5
t75.5 -12.5l-13 -83q-21 5 -39 8t-34.5 5t-33.5 3t-37 1z" />
    <glyph glyph-name="d" unicode="d" horiz-adv-x="642" 
d="M432 104q-48 -63 -97.5 -92t-112.5 -29q-46 0 -81 15t-58.5 41t-35.5 62.5t-12 79.5q0 78 18.5 149t60 125t108.5 86t165 32q17 0 47 -2t64 -6l38 267h94l-118 -832h-94zM244 65q28 0 56 15t54.5 39t51 54.5t45.5 62.5l34 241q-35 7 -65 10t-53 3q-60 0 -104 -21.5
t-73.5 -60t-44 -90.5t-14.5 -112q0 -41 10.5 -68.5t26.5 -43.5t36 -22.5t40 -6.5z" />
    <glyph glyph-name="e" unicode="e" horiz-adv-x="599" 
d="M133 244v-13q0 -44 13.5 -75t37 -51.5t55.5 -30t68 -9.5q44 0 90 8t98 22l-15 -87q-37 -12 -88.5 -18.5t-104.5 -6.5q-59 0 -106 16.5t-79 47t-49 74t-17 97.5q0 63 18.5 126.5t56.5 114t96.5 82.5t138.5 32q56 0 96 -13.5t65.5 -37.5t37.5 -57t12 -73q0 -32 -8 -71.5
t-22 -76.5h-394zM337 490q-38 0 -69 -13t-56 -36t-42.5 -54.5t-26.5 -69.5h305q6 21 9 36t3 30q0 31 -10.5 52t-28 33t-39.5 17t-45 5z" />
    <glyph glyph-name="f" unicode="f" horiz-adv-x="367" 
d="M60 556h84l12 85q7 54 27 92.5t49.5 63t67.5 36.5t80 12q28 0 50.5 -4.5t45.5 -12.5l-16 -80q-18 8 -43.5 11.5t-45.5 3.5q-51 0 -82.5 -31t-40.5 -95l-11 -81h139l-12 -83h-139l-65 -473h-94l66 473h-84z" />
    <glyph glyph-name="g" unicode="g" horiz-adv-x="648" 
d="M444 125q-51 -54 -103 -77t-113 -23q-91 0 -139.5 49t-48.5 138q0 77 21 143t64 114.5t108 76t153 27.5q34 0 84.5 -4t127.5 -15l-73 -519q-36 -252 -302 -252q-52 0 -106 6.5t-96 17.5v91q19 -6 45.5 -11.5t55 -10t57 -7t52.5 -2.5q39 0 72.5 8t60 29.5t45 59t26.5 96.5
zM253 108q54 0 103.5 31t101.5 89l36 251q-40 7 -71.5 9t-56.5 2q-58 0 -101 -19.5t-71.5 -54t-42.5 -82.5t-14 -105q0 -64 31.5 -92.5t84.5 -28.5z" />
    <glyph glyph-name="h" unicode="h" horiz-adv-x="656" 
d="M489 371q10 67 -15 93t-84 26q-45 0 -96 -27t-111 -75l-54 -388h-94l117 832h94l-51 -359q48 42 104.5 71t122.5 29q94 0 135.5 -45t27.5 -149l-53 -379h-94z" />
    <glyph glyph-name="i" unicode="i" horiz-adv-x="306" 
d="M161 556h94l-78 -556h-94zM196 800h94l-19 -130h-94z" />
    <glyph glyph-name="j" unicode="j" horiz-adv-x="309" 
d="M164 556h93l-83 -599q-14 -91 -61.5 -132.5t-121.5 -41.5q-21 0 -41.5 2.5t-43.5 9.5v86q17 -8 38 -11.5t37 -3.5q38 0 64 22t34 79zM196 800h94l-19 -130h-94z" />
    <glyph glyph-name="k" unicode="k" horiz-adv-x="610" 
d="M151 832h98l-117 -832h-98zM503 556h121l-314 -263l236 -293h-126l-226 288z" />
    <glyph glyph-name="l" unicode="l" horiz-adv-x="285" 
d="M170 832h93l-116 -832h-94z" />
    <glyph glyph-name="m" unicode="m" horiz-adv-x="1043" 
d="M485 372q11 67 -12.5 92.5t-82.5 25.5q-27 0 -52 -8t-50 -22.5t-51 -33.5t-55 -41l-54 -385h-93l78 556l94 10l-13 -95q48 43 105 72.5t123 29.5q69 0 108.5 -24t50.5 -78q24 21 50 39.5t55 32.5t59.5 22t63.5 8q94 0 135.5 -45t27.5 -149l-53 -379h-94l51 371
q9 67 -15.5 93t-83.5 26q-24 0 -49.5 -8.5t-50 -21.5t-48.5 -30t-45 -33l-2 -18l-54 -379h-94z" />
    <glyph glyph-name="n" unicode="n" horiz-adv-x="656" 
d="M113 556l95 10l-13 -94q48 42 104.5 71.5t122.5 29.5q94 0 135.5 -45t27.5 -149l-53 -379h-94l51 371q10 67 -15 93t-84 26q-46 0 -96.5 -27.5t-110.5 -75.5l-54 -387h-94z" />
    <glyph glyph-name="o" unicode="o" horiz-adv-x="660" 
d="M38 213q0 74 18.5 139.5t57.5 114.5t100 77.5t147 28.5q65 0 111.5 -17.5t76 -48t43.5 -73t14 -93.5q0 -78 -20 -143.5t-60.5 -113.5t-100.5 -74.5t-140 -26.5q-66 0 -113 17t-77 47t-43.5 72.5t-13.5 93.5zM353 490q-58 0 -99 -20.5t-67.5 -55.5t-39 -83t-12.5 -102
q0 -36 8 -66t27 -52t48.5 -34t73.5 -12q48 0 88 18.5t68.5 52.5t44.5 82t16 108q0 81 -41 122.5t-115 41.5z" />
    <glyph glyph-name="p" unicode="p" horiz-adv-x="654" 
d="M190 454q30 33 58 56t55 37t54.5 20t56.5 6q43 0 78 -15.5t59.5 -43t37.5 -64.5t13 -80q0 -72 -16 -141.5t-56.5 -124t-110 -88t-176.5 -33.5q-30 0 -58.5 2.5t-58.5 6.5l-26 -192h-94l107 756l95 10zM390 490q-28 0 -57 -11.5t-57 -30.5t-53 -44t-45 -52l-39 -277
q43 -8 78.5 -9.5t52.5 -1.5q62 0 106.5 22.5t73 61t42 89.5t13.5 107q0 40 -10 68t-26 45.5t-37 25t-42 7.5z" />
    <glyph glyph-name="q" unicode="q" horiz-adv-x="639" 
d="M483 -200h-92l43 305q-53 -68 -105 -95t-116 -27q-43 0 -76 15t-55.5 42t-34.5 64t-12 80q0 71 17 140.5t58.5 125t111 89.5t174.5 34q31 0 77 -5t117 -18zM242 65q28 0 55 13.5t53.5 37.5t51.5 55.5t50 67.5l34 237q-38 7 -66 10.5t-50 3.5q-62 0 -107.5 -22t-74.5 -60
t-43 -90.5t-14 -112.5q0 -41 10 -68t26 -43t36 -22.5t39 -6.5z" />
    <glyph glyph-name="r" unicode="r" horiz-adv-x="423" 
d="M113 556l97 10l-16 -110q42 49 93 81t117 32q17 0 32 -3l-13 -100q-16 3 -31 4t-29 1q-24 0 -47.5 -8.5t-46 -23t-44 -33.5t-43.5 -39l-52 -367h-95z" />
    <glyph glyph-name="s" unicode="s" horiz-adv-x="555" 
d="M234 65q30 0 58 4.5t50 16t35 29.5t14 45q0 27 -24.5 41.5t-61.5 25.5t-80.5 21t-80.5 27t-61.5 44.5t-24.5 72.5t19.5 79t54 56.5t81.5 34t102 11.5q37 0 67 -3t54 -8t43.5 -11t36.5 -12l-17 -89q-43 17 -91 28.5t-100 11.5q-69 0 -110 -22t-43 -66q0 -26 24.5 -41
t61.5 -26t80.5 -21t80.5 -27t61.5 -44.5t24.5 -72.5q0 -39 -16 -73t-48.5 -59.5t-81 -40t-112.5 -14.5q-79 0 -129 8.5t-87 19.5l12 83q48 -12 101 -20.5t107 -8.5z" />
    <glyph glyph-name="s" unicode="&#xe004;" horiz-adv-x="555" 
d="M234 65q30 0 58 4.5t50 16t35 29.5t14 45q0 27 -24.5 41.5t-61.5 25.5t-80.5 21t-80.5 27t-61.5 44.5t-24.5 72.5t19.5 79t54 56.5t81.5 34t102 11.5q37 0 67 -3t54 -8t43.5 -11t36.5 -12l-17 -89q-43 17 -91 28.5t-100 11.5q-69 0 -110 -22t-43 -66q0 -26 24.5 -41
t61.5 -26t80.5 -21t80.5 -27t61.5 -44.5t24.5 -72.5q0 -39 -16 -73t-48.5 -59.5t-81 -40t-112.5 -14.5q-79 0 -129 8.5t-87 19.5l12 83q48 -12 101 -20.5t107 -8.5z" />
    <glyph glyph-name="t" unicode="t" horiz-adv-x="421" 
d="M54 556h97l26 180h95l-26 -180h174l-12 -83h-173l-43 -308q-4 -29 -0.5 -48t13.5 -30t26.5 -15.5t39.5 -4.5q19 0 43.5 3.5t44.5 8.5l-9 -82q-29 -6 -61 -10t-60 -4q-35 0 -62.5 9t-45.5 30t-25 54.5t0 82.5l44 314h-98z" />
    <glyph glyph-name="u" unicode="u" 
d="M150 184q-10 -67 12.5 -93t80.5 -26q27 0 56 11t57.5 27.5t55 36.5t47.5 37l53 379h94l-78 -556h-94l12 87q-49 -43 -108 -73.5t-124 -30.5q-94 0 -133.5 45.5t-25.5 149.5l53 378h94z" />
    <glyph glyph-name="v" unicode="v" horiz-adv-x="585" 
d="M253 78l246 478h104l-294 -556h-131l-141 556h109z" />
    <glyph glyph-name="w" unicode="w" horiz-adv-x="912" 
d="M212 89l216 467h108l86 -478l206 478h97l-254 -556h-119l-91 433l-207 -433h-113l-97 556h97z" />
    <glyph glyph-name="x" unicode="x" horiz-adv-x="601" 
d="M362 282l175 -282h-119l-131 221l-203 -221h-117l265 273l-176 283h115l136 -218l191 218h111z" />
    <glyph glyph-name="y" unicode="y" horiz-adv-x="658" 
d="M452 120q-48 -39 -102.5 -63.5t-117.5 -24.5q-93 0 -139 45t-32 140l48 339h94l-45 -319q-9 -68 13.5 -95t79.5 -27q29 0 58 8.5t56.5 21.5t52.5 28.5t46 29.5l50 353h94l-75 -526q-17 -119 -90 -183t-212 -64q-47 0 -102.5 4.5t-99.5 13.5v87q18 -4 43.5 -7.5t54 -6.5
t56 -5t50.5 -2q43 0 78.5 8t62 28.5t43.5 55.5t25 89z" />
    <glyph glyph-name="y" unicode="&#xe006;" horiz-adv-x="658" 
d="M452 120q-48 -39 -102.5 -63.5t-117.5 -24.5q-93 0 -139 45t-32 140l48 339h94l-45 -319q-9 -68 13.5 -95t79.5 -27q29 0 58 8.5t56.5 21.5t52.5 28.5t46 29.5l50 353h94l-75 -526q-17 -119 -90 -183t-212 -64q-47 0 -102.5 4.5t-99.5 13.5v87q18 -4 43.5 -7.5t54 -6.5
t56 -5t50.5 -2q43 0 78.5 8t62 28.5t43.5 55.5t25 89z" />
    <glyph glyph-name="z" unicode="z" horiz-adv-x="552" 
d="M9 0l9 70l381 403h-343l29 83h439l2 -54l-394 -419h343l-12 -83h-454z" />
    <glyph glyph-name="exclamdown" unicode="&#xa1;" horiz-adv-x="293" 
d="M63 118l33 202h98l-25 -203l-44 -317h-107zM127 581h109l-21 -153h-109z" />
    <glyph glyph-name="cent" unicode="&#xa2;" horiz-adv-x="636" 
d="M278 73q-106 6 -167 66.5t-61 172.5q0 162 81 250t229 98l12 81h85l-11 -80q42 -2 84 -6.5t78 -15.5l-17 -86q-38 11 -77.5 16t-79.5 7l-59 -415q42 3 85.5 11.5t78.5 22.5l-9 -79q-30 -14 -76 -24.5t-91 -15.5l-10 -76h-85zM148 332q0 -79 38 -121t104 -50l58 414
q-45 -5 -82 -20t-63 -43.5t-40.5 -72.5t-14.5 -107z" />
    <glyph glyph-name="sterling" unicode="&#xa3;" horiz-adv-x="738" 
d="M8 0l12 93h92l31 230h-90l11 88h91l12 83q11 78 43 138t79 101t106.5 62t125.5 21q65 0 124 -17.5t101 -62.5l-34 -86q-42 40 -95.5 58.5t-105.5 18.5q-95 0 -159.5 -58.5t-81.5 -185.5l-10 -72h295l-12 -88h-296l-32 -230h426l-13 -93h-620z" />
    <glyph glyph-name="yen" unicode="&#xa5;" horiz-adv-x="797" 
d="M321 179h-267l12 76h266l6 40l-24 51h-237l12 75h191l-176 379h115l183 -417l315 417h107l-287 -379h191l-12 -75h-236l-38 -50l-6 -41h268l-12 -76h-267l-25 -179h-104z" />
    <glyph glyph-name="brokenbar" unicode="&#xa6;" horiz-adv-x="275" 
d="M162 800h83l-47 -331h-83zM96 331h83l-47 -331h-83z" />
    <glyph glyph-name="section" unicode="&#xa7;" horiz-adv-x="606" 
d="M80 398q0 42 18.5 70.5t48.5 46.5q-17 17 -26 39.5t-9 52.5q0 51 21 90.5t58 65.5t88 39.5t111 13.5q61 0 112.5 -16t83.5 -36l-27 -88q-15 10 -36 19t-45.5 16t-51.5 11t-53 4q-78 0 -124.5 -26.5t-47.5 -81.5q0 -30 25.5 -47t63.5 -28.5t82.5 -21.5t82.5 -27.5
t63.5 -46t25.5 -76.5q0 -67 -48 -107q11 -14 17 -31.5t6 -40.5q0 -54 -21.5 -93.5t-58.5 -65t-87 -37.5t-107 -12q-76 0 -127.5 12.5t-88.5 31.5l22 83q43 -20 97.5 -32.5t111.5 -12.5q38 0 69.5 8t55 22t36.5 34.5t13 44.5q0 29 -26 44t-65.5 23.5t-85.5 16t-85.5 22.5
t-65.5 42t-26 75zM167 421q0 -33 27 -49.5t67.5 -25.5t87 -16t85.5 -23q9 8 15 16.5t6 19.5q0 33 -24 51.5t-61 31t-80 22.5t-81 27q-20 -8 -31 -22.5t-11 -31.5z" />
    <glyph glyph-name="dieresis" unicode="&#xa8;" horiz-adv-x="575" 
d="M252 800h84l-19 -130h-84zM475 800h84l-19 -130h-85z" />
    <glyph glyph-name="copyright" unicode="&#xa9;" horiz-adv-x="890" 
d="M571 195q-29 -14 -64.5 -22t-73.5 -8q-94 0 -146.5 48.5t-52.5 137.5q0 56 18.5 107.5t53 91t84.5 63t114 23.5q37 0 66 -6t61 -18l-15 -68q-16 6 -29.5 10.5t-27 7t-28.5 4t-33 1.5q-43 0 -77 -14t-57 -39t-36 -60t-14 -76q-4 -73 32.5 -109t105.5 -36q37 0 65 6.5
t60 19.5zM510 800q78 0 140 -25t106 -69.5t67.5 -106.5t23.5 -136q0 -96 -35 -182t-95.5 -150.5t-143 -102t-177.5 -37.5q-78 0 -140 24.5t-105.5 69t-67 106.5t-23.5 136q0 96 34.5 182t95.5 150.5t143 102.5t177 38zM121 331q0 -63 19 -116t55 -91t88.5 -59t120.5 -21
q89 0 160 36t120 95t75 134t26 152q0 63 -19 115.5t-55 90.5t-88.5 59t-119.5 21q-89 0 -159.5 -36.5t-120 -95t-76 -133.5t-26.5 -151z" />
    <glyph glyph-name="ordfeminine" unicode="&#xaa;" horiz-adv-x="518" 
d="M442 437h-86l8 62q-34 -38 -67 -55.5t-73 -17.5q-30 0 -53 10t-38.5 28t-23 42t-7.5 51q0 46 11 89.5t38 77.5t73 55t117 21q11 0 46 -1.5t104 -9.5zM250 497q29 0 63 23t62 57l21 149q-26 3 -46 4t-30 1q-64 0 -100.5 -40.5t-36.5 -115.5q0 -45 19 -61.5t48 -16.5z
M99 385h347l-9 -59h-346z" />
    <glyph glyph-name="guillemotleft" unicode="&#xab;" horiz-adv-x="544" 
d="M146 280l79 -234h-90l-92 234l161 230h89zM371 280l79 -234h-89l-92 234l161 230h88z" />
    <glyph glyph-name="logicalnot" unicode="&#xac;" horiz-adv-x="678" 
d="M601 357l-36 -255h-74l26 184h-444l10 71h518z" />
    <glyph glyph-name="registered" unicode="&#xae;" horiz-adv-x="669" 
d="M401 816q52 0 94 -16.5t72 -46.5t46 -71.5t16 -91.5q0 -66 -24 -123t-65.5 -100t-97 -67.5t-117.5 -24.5q-52 0 -93.5 16.5t-71 46t-45 70.5t-15.5 91q0 65 23.5 122.5t64 101t95.5 68.5t118 25zM148 501q0 -82 47.5 -133t135.5 -51q57 0 103.5 23.5t78.5 61.5t49.5 86
t17.5 98q0 41 -12.5 75.5t-36 59.5t-58 39t-78.5 14q-58 0 -104 -24t-77.5 -62.5t-48.5 -87.5t-17 -99zM292 698h110q44 0 66 -27.5t17 -63.5q-4 -26 -22 -50.5t-50 -34.5l45 -117h-51l-37 110h-56l-15 -110h-48zM335 660l-16 -110h50q29 0 46 16.5t21 39.5q2 23 -10.5 38.5
t-40.5 15.5h-50z" />
    <glyph glyph-name="macron" unicode="&#xaf;" horiz-adv-x="562" 
d="M239 768h306l-9 -71h-307z" />
    <glyph glyph-name="degree" unicode="&#xb0;" horiz-adv-x="443" 
d="M91 619q0 40 15.5 75t42.5 61t62.5 41.5t75.5 15.5q32 0 59.5 -11t47.5 -30t31 -46t11 -58q0 -42 -16 -77.5t-43 -61t-62 -40t-73 -14.5q-32 0 -59.5 11t-48 30t-32 45.5t-11.5 58.5zM279 754q-24 0 -46.5 -9.5t-39 -26.5t-26.5 -40.5t-10 -51.5q0 -42 25.5 -68t64.5 -26
q25 0 47 10t38.5 27.5t26 40.5t9.5 50q0 40 -23.5 67t-65.5 27z" />
    <glyph glyph-name="plusminus" unicode="&#xb1;" horiz-adv-x="545" 
d="M320 392h161l-10 -70h-161l-23 -168h-70l23 168h-166l10 70h166l23 161h70zM34 33l10 71h396l-9 -71h-397z" />
    <glyph glyph-name="twosuperior" unicode="&#xb2;" horiz-adv-x="446" 
d="M61 500l12 84q11 31 37.5 58.5t60.5 52.5t70.5 48.5t68 46t52.5 45.5t24 47q0 34 -27.5 53.5t-83.5 19.5q-29 0 -66.5 -7t-67.5 -21l-9 76q15 7 35.5 13.5t43.5 11.5t46.5 8t44.5 3q39 0 72 -8.5t57 -25t37.5 -41.5t13.5 -57q0 -42 -17 -73t-45 -56t-63 -46.5t-70 -43.5
t-67.5 -47t-55.5 -57h277l-12 -84h-368z" />
    <glyph glyph-name="threesuperior" unicode="&#xb3;" horiz-adv-x="453" 
d="M489 914q0 -30 -13 -53.5t-34 -40.5t-47.5 -28.5t-54.5 -18.5q53 -6 82.5 -39.5t29.5 -77.5q0 -41 -19.5 -72t-53 -52t-77.5 -31.5t-93 -10.5q-43 0 -84 9.5t-68 24.5l31 78q29 -15 67 -22.5t72 -7.5q33 0 57.5 8t40.5 21.5t24 29.5t8 33q0 33 -31 53t-88 20h-24l-2 54
q81 11 126.5 35t47.5 67q0 24 -25 42t-74 18q-33 0 -72.5 -8t-77.5 -24l-9 74q16 7 38 15t46.5 14.5t49.5 10.5t46 4q39 0 72.5 -9t57.5 -25t37.5 -39.5t13.5 -51.5z" />
    <glyph glyph-name="acute" unicode="&#xb4;" horiz-adv-x="546" 
d="M268 641l120 170h113l-136 -170h-97z" />
    <glyph glyph-name="mu" unicode="&#xb5;" 
d="M542 0h-94l12 87q-49 -43 -108 -73.5t-124 -30.5q-56 0 -91 16l-28 -199h-94l65 457l42 299h94l-52 -372q-10 -67 12.5 -93t80.5 -26q27 0 56 11t57.5 27.5t55 36.5t47.5 37l53 379h94z" />
    <glyph glyph-name="paragraph" unicode="&#xb6;" horiz-adv-x="695" 
d="M411 240h-95q-51 0 -97.5 15t-81.5 45t-55.5 74.5t-20.5 102.5q0 61 20.5 119t62 103.5t104.5 73t149 27.5h93zM548 800h102l-141 -1000h-102z" />
    <glyph glyph-name="periodcentered" unicode="&#xb7;" horiz-adv-x="255" 
d="M101 504h100l-19 -118h-99z" />
    <glyph glyph-name="cedilla" unicode="&#xb8;" horiz-adv-x="491" 
d="M356 -64q0 -32 -12.5 -57.5t-34.5 -43t-50.5 -26.5t-61.5 -9h-35l10 71h24q40 0 66 17t26 46q0 16 -10 28.5t-24.5 21.5t-30.5 14.5t-29 8.5l19 46q22 -3 47.5 -12.5t46.5 -24t35 -35t14 -45.5z" />
    <glyph glyph-name="onesuperior" unicode="&#xb9;" horiz-adv-x="416" 
d="M63 500l11 84h142l50 360h-141l12 84h231l-62 -444h130l-11 -84h-362z" />
    <glyph glyph-name="ordmasculine" unicode="&#xba;" horiz-adv-x="517" 
d="M272 425q-84 0 -123.5 41.5t-39.5 106.5q0 46 13 87.5t40 72.5t67.5 49t95.5 18q43 0 74 -11t51 -30.5t29 -46.5t9 -60q0 -46 -13 -87.5t-39.5 -72.5t-67 -49t-96.5 -18zM437 385l-9 -59h-346l8 59h347zM316 734q-65 0 -93.5 -41.5t-28.5 -107.5q0 -41 20.5 -66.5
t68.5 -25.5q52 0 86 36t34 111q0 45 -22.5 69.5t-64.5 24.5z" />
    <glyph glyph-name="guillemotright" unicode="&#xbb;" horiz-adv-x="544" 
d="M76 510h88l96 -230l-157 -234h-89l144 234zM301 510h89l95 -230l-156 -234h-90l144 234z" />
    <glyph glyph-name="onequarter" unicode="&#xbc;" horiz-adv-x="1146" 
d="M1000 99l-13 -99h-87l13 99h-257l-15 74l229 355h103l-230 -345h182l19 131h87l-19 -131h75l-13 -84h-74zM55 272l11 84h142l50 360h-141l12 84h231l-62 -444h130l-11 -84h-362zM785 790h93l-503 -800h-93z" />
    <glyph glyph-name="onehalf" unicode="&#xbd;" horiz-adv-x="1161" 
d="M699 0l12 84q11 31 37.5 58.5t60.5 52.5t70.5 48.5t68 46t52.5 45.5t24 47q0 34 -27.5 53.5t-83.5 19.5q-29 0 -66.5 -7t-67.5 -21l-9 76q15 7 35.5 13.5t43.5 11.5t46.5 8t44.5 3q39 0 72 -8.5t57 -25t37.5 -41.5t13.5 -57q0 -42 -17 -73t-45 -56t-63 -46.5t-70 -43.5
t-67.5 -47t-55.5 -57h277l-12 -84h-368zM46 272l11 84h142l50 360h-141l12 84h231l-62 -444h130l-11 -84h-362zM778 790h93l-503 -800h-93z" />
    <glyph glyph-name="threequarters" unicode="&#xbe;" horiz-adv-x="1131" 
d="M481 686q0 -30 -13 -53.5t-34 -40.5t-47.5 -28.5t-54.5 -18.5q53 -6 82.5 -39.5t29.5 -77.5q0 -41 -19.5 -72t-53 -52t-77.5 -31.5t-93 -10.5q-43 0 -84 9.5t-68 24.5l31 78q29 -15 67 -22.5t72 -7.5q33 0 57.5 8t40.5 21.5t24 29.5t8 33q0 33 -31 53t-88 20h-24l-2 54
q81 11 126.5 35t47.5 67q0 24 -25 42t-74 18q-33 0 -72.5 -8t-77.5 -24l-9 74q16 7 38 15t46.5 14.5t49.5 10.5t46 4q39 0 72.5 -9t57.5 -25t37.5 -39.5t13.5 -51.5zM985 99l-13 -99h-87l13 99h-257l-15 74l229 355h103l-230 -345h182l19 131h87l-19 -131h75l-13 -84h-74z
M781 790h93l-503 -800h-93z" />
    <glyph glyph-name="questiondown" unicode="&#xbf;" horiz-adv-x="610" 
d="M447 450h-109l20 153h109zM406 196q-86 -14 -143.5 -32t-92.5 -41t-50 -51.5t-15 -62.5q0 -63 43.5 -93t110.5 -30q62 0 120.5 13.5t118.5 44.5l10 -92q-61 -32 -130.5 -48.5t-141.5 -16.5q-51 0 -94.5 12.5t-76 38t-51 64t-18.5 89.5q0 58 21.5 101t62 74t98.5 51.5
t131 34.5l12 83h104z" />
    <glyph glyph-name="Agrave" unicode="&#xc0;" horiz-adv-x="760" 
d="M531 255h-337l-135 -255h-104l438 800h98l207 -800h-106zM240 341h271l-84 352zM407 846l-110 136h103l101 -136h-94z" />
    <glyph glyph-name="Aacute" unicode="&#xc1;" horiz-adv-x="760" 
d="M531 255h-337l-135 -255h-104l438 800h98l207 -800h-106zM240 341h271l-84 352zM410 846l101 136h103l-110 -136h-94z" />
    <glyph glyph-name="Acircumflex" unicode="&#xc2;" horiz-adv-x="760" 
d="M531 255h-337l-135 -255h-104l438 800h98l207 -800h-106zM240 341h271l-84 352zM534 977l92 -131h-99l-55 85l-85 -85h-103l141 131h109z" />
    <glyph glyph-name="Adieresis" unicode="&#xc4;" horiz-adv-x="760" 
d="M531 255h-337l-135 -255h-104l438 800h98l207 -800h-106zM240 341h271l-84 352zM340 961h73l-16 -109h-73zM538 961h72l-16 -109h-72z" />
    <glyph glyph-name="AE" unicode="&#xc6;" horiz-adv-x="1052" 
d="M455 0l39 283h-226l-193 -283h-121l571 800h543l-14 -93h-397l-37 -263h286l-13 -88h-286l-37 -263h399l-13 -93h-501zM507 372l46 328l-224 -328h178z" />
    <glyph glyph-name="Ccedilla" unicode="&#xc7;" horiz-adv-x="715" 
d="M494 -64q0 -32 -12.5 -57.5t-34.5 -43t-50.5 -26.5t-61.5 -9h-35l10 71h24q40 0 66 17t26 46q0 17 -10.5 29.5t-24.5 21.5q-75 3 -136 29t-104.5 71.5t-67.5 110t-24 145.5q0 106 36 193.5t99.5 150t150 97t187.5 34.5q51 0 101.5 -11.5t88.5 -35.5l-22 -89
q-36 21 -82.5 32t-92.5 11q-74 0 -139 -24t-113.5 -71t-76.5 -116t-28 -159q0 -133 72 -204t196 -71q48 0 100 12.5t94 34.5v-89q-33 -18 -72.5 -30.5t-82.5 -17.5q19 -24 19 -52z" />
    <glyph glyph-name="Egrave" unicode="&#xc8;" horiz-adv-x="636" 
d="M159 800h498l-13 -92h-394l-38 -263h277l-13 -90h-276l-37 -263h394l-13 -92h-498zM404 846l-110 136h103l101 -136h-94z" />
    <glyph glyph-name="Eacute" unicode="&#xc9;" horiz-adv-x="636" 
d="M159 800h498l-13 -92h-394l-38 -263h277l-13 -90h-276l-37 -263h394l-13 -92h-498zM361 846l101 136h103l-110 -136h-94z" />
    <glyph glyph-name="Ecircumflex" unicode="&#xca;" horiz-adv-x="636" 
d="M159 800h498l-13 -92h-394l-38 -263h277l-13 -90h-276l-37 -263h394l-13 -92h-498zM514 977l92 -131h-99l-55 85l-85 -85h-103l141 131h109z" />
    <glyph glyph-name="Edieresis" unicode="&#xcb;" horiz-adv-x="636" 
d="M159 800h498l-13 -92h-394l-38 -263h277l-13 -90h-276l-37 -263h394l-13 -92h-498zM312 961h73l-16 -109h-73zM510 961h72l-16 -109h-72z" />
    <glyph glyph-name="Iacute" unicode="&#xcd;" horiz-adv-x="313" 
d="M190 846l101 136h103l-110 -136h-94zM160 800h104l-113 -800h-104z" />
    <glyph glyph-name="Icircumflex" unicode="&#xce;" horiz-adv-x="313" 
d="M314 977l92 -131h-99l-55 85l-85 -85h-103l141 131h109zM160 800h104l-113 -800h-104z" />
    <glyph glyph-name="Idieresis" unicode="&#xcf;" horiz-adv-x="313" 
d="M118 961h73l-16 -109h-73zM316 961h72l-16 -109h-72zM160 800h104l-113 -800h-104z" />
    <glyph glyph-name="Ntilde" unicode="&#xd1;" horiz-adv-x="937" 
d="M499 899q-45 0 -88 -20l9 60q16 9 38 14.5t47 5.5q17 0 32.5 -4.5t29.5 -10.5t28.5 -10.5t30.5 -4.5q21 0 44 4t43 16l-8 -60q-20 -12 -42.5 -16t-43.5 -4q-17 0 -32 4.5t-29.5 10.5t-29 10.5t-29.5 4.5zM241 643l-91 -643h-104l113 800h97l451 -658l93 658h103
l-113 -800h-107z" />
    <glyph glyph-name="Oacute" unicode="&#xd3;" horiz-adv-x="915" 
d="M453 846l101 136h103l-110 -136h-94zM59 348q0 99 34.5 184.5t96 148.5t146.5 99t186 36q78 0 143 -25.5t111.5 -72.5t72.5 -113.5t26 -149.5q0 -105 -36 -191.5t-99 -149t-147.5 -96.5t-181.5 -34q-77 0 -142 26.5t-111.5 74.5t-72.5 115t-26 148zM510 727
q-75 0 -138 -27.5t-109 -77t-72 -117t-26 -147.5q0 -65 19 -118t53.5 -90t82.5 -57t105 -20q75 0 138 28t109 77.5t71.5 117t25.5 146.5q0 68 -19 121t-53 89.5t-82 55.5t-105 19z" />
    <glyph glyph-name="Ocircumflex" unicode="&#xd4;" horiz-adv-x="915" 
d="M607 977l92 -131h-99l-55 85l-85 -85h-103l141 131h109zM59 348q0 99 34.5 184.5t96 148.5t146.5 99t186 36q78 0 143 -25.5t111.5 -72.5t72.5 -113.5t26 -149.5q0 -105 -36 -191.5t-99 -149t-147.5 -96.5t-181.5 -34q-77 0 -142 26.5t-111.5 74.5t-72.5 115t-26 148z
M510 727q-75 0 -138 -27.5t-109 -77t-72 -117t-26 -147.5q0 -65 19 -118t53.5 -90t82.5 -57t105 -20q75 0 138 28t109 77.5t71.5 117t25.5 146.5q0 68 -19 121t-53 89.5t-82 55.5t-105 19z" />
    <glyph glyph-name="Odieresis" unicode="&#xd6;" horiz-adv-x="915" 
d="M404 961h73l-16 -109h-73zM602 961h72l-16 -109h-72zM59 348q0 99 34.5 184.5t96 148.5t146.5 99t186 36q78 0 143 -25.5t111.5 -72.5t72.5 -113.5t26 -149.5q0 -105 -36 -191.5t-99 -149t-147.5 -96.5t-181.5 -34q-77 0 -142 26.5t-111.5 74.5t-72.5 115t-26 148z
M510 727q-75 0 -138 -27.5t-109 -77t-72 -117t-26 -147.5q0 -65 19 -118t53.5 -90t82.5 -57t105 -20q75 0 138 28t109 77.5t71.5 117t25.5 146.5q0 68 -19 121t-53 89.5t-82 55.5t-105 19z" />
    <glyph glyph-name="Ugrave" unicode="&#xd9;" horiz-adv-x="911" 
d="M493 846l-110 136h103l101 -136h-94zM875 800l-60 -428q-12 -83 -47.5 -154t-90.5 -123.5t-126 -82.5t-154 -30t-146 27t-103.5 77.5t-56 122.5t-2.5 163l60 428h103l-59 -418q-10 -69 -1.5 -126t35.5 -97.5t72.5 -62.5t110.5 -22q64 0 116 24t90.5 65.5t62.5 97.5
t33 121l59 418h104z" />
    <glyph glyph-name="Uacute" unicode="&#xda;" horiz-adv-x="911" 
d="M452 846l101 136h103l-110 -136h-94zM875 800l-60 -428q-12 -83 -47.5 -154t-90.5 -123.5t-126 -82.5t-154 -30t-146 27t-103.5 77.5t-56 122.5t-2.5 163l60 428h103l-59 -418q-10 -69 -1.5 -126t35.5 -97.5t72.5 -62.5t110.5 -22q64 0 116 24t90.5 65.5t62.5 97.5
t33 121l59 418h104z" />
    <glyph glyph-name="Ucircumflex" unicode="&#xdb;" horiz-adv-x="911" 
d="M599 977l92 -131h-99l-55 85l-85 -85h-103l141 131h109zM875 800l-60 -428q-12 -83 -47.5 -154t-90.5 -123.5t-126 -82.5t-154 -30t-146 27t-103.5 77.5t-56 122.5t-2.5 163l60 428h103l-59 -418q-10 -69 -1.5 -126t35.5 -97.5t72.5 -62.5t110.5 -22q64 0 116 24
t90.5 65.5t62.5 97.5t33 121l59 418h104z" />
    <glyph glyph-name="Udieresis" unicode="&#xdc;" horiz-adv-x="911" 
d="M408 961h73l-16 -109h-73zM606 961h72l-16 -109h-72zM875 800l-60 -428q-12 -83 -47.5 -154t-90.5 -123.5t-126 -82.5t-154 -30t-146 27t-103.5 77.5t-56 122.5t-2.5 163l60 428h103l-59 -418q-10 -69 -1.5 -126t35.5 -97.5t72.5 -62.5t110.5 -22q64 0 116 24t90.5 65.5
t62.5 97.5t33 121l59 418h104z" />
    <glyph glyph-name="germandbls" unicode="&#xdf;" horiz-adv-x="705" 
d="M70 556h73l7 46q7 53 26.5 98t54.5 77.5t88 50.5t127 18q57 0 96 -13t63 -35t34 -51.5t10 -62.5q0 -35 -13.5 -61.5t-33.5 -48t-43 -39.5t-43 -36.5t-33.5 -38.5t-13.5 -45q0 -28 13 -47.5t32 -35.5t41.5 -30.5t41.5 -33.5t32 -45t13 -63q0 -38 -16.5 -70.5t-46 -56
t-69.5 -37t-87 -13.5q-31 0 -61 4.5t-53 12.5l11 83q34 -9 60.5 -13.5t52.5 -4.5q51 0 81.5 25t30.5 58q0 24 -12.5 41.5t-31.5 33t-40.5 31t-40.5 35t-31.5 45t-12.5 61.5q0 34 13 62t32.5 51t42 43t42 39t32.5 37.5t13 39.5q0 46 -29.5 71t-86.5 25q-92 0 -136.5 -46.5
t-56.5 -130.5l-83 -586h-94l67 473h-74z" />
    <glyph glyph-name="agrave" unicode="&#xe0;" horiz-adv-x="640" 
d="M512 0h-94l14 103q-48 -63 -97.5 -91.5t-112.5 -28.5q-47 0 -82 15t-58 41.5t-35 62.5t-12 79q0 78 18.5 149t60.5 125t109 86t163 32q31 0 79.5 -4.5t124.5 -18.5zM244 65q27 0 55 15t55 39t51.5 55t45.5 63l34 239q-37 8 -65 11t-53 3q-62 0 -106.5 -23t-73 -62
t-42.5 -91t-14 -110q0 -40 10 -67t26 -43t36.5 -22.5t40.5 -6.5zM362 640l-136 170h113l120 -170h-97z" />
    <glyph glyph-name="aacute" unicode="&#xe1;" horiz-adv-x="640" 
d="M512 0h-94l14 103q-48 -63 -97.5 -91.5t-112.5 -28.5q-47 0 -82 15t-58 41.5t-35 62.5t-12 79q0 78 18.5 149t60.5 125t109 86t163 32q31 0 79.5 -4.5t124.5 -18.5zM244 65q27 0 55 15t55 39t51.5 55t45.5 63l34 239q-37 8 -65 11t-53 3q-62 0 -106.5 -23t-73 -62
t-42.5 -91t-14 -110q0 -40 10 -67t26 -43t36.5 -22.5t40.5 -6.5zM328 641l120 170h113l-136 -170h-97z" />
    <glyph glyph-name="acircumflex" unicode="&#xe2;" horiz-adv-x="640" 
d="M512 0h-94l14 103q-48 -63 -97.5 -91.5t-112.5 -28.5q-47 0 -82 15t-58 41.5t-35 62.5t-12 79q0 78 18.5 149t60.5 125t109 86t163 32q31 0 79.5 -4.5t124.5 -18.5zM244 65q27 0 55 15t55 39t51.5 55t45.5 63l34 239q-37 8 -65 11t-53 3q-62 0 -106.5 -23t-73 -62
t-42.5 -91t-14 -110q0 -40 10 -67t26 -43t36.5 -22.5t40.5 -6.5zM474 805l90 -164h-106l-52 116l-88 -116h-107l139 164h124z" />
    <glyph glyph-name="adieresis" unicode="&#xe4;" horiz-adv-x="640" 
d="M512 0h-94l14 103q-48 -63 -97.5 -91.5t-112.5 -28.5q-47 0 -82 15t-58 41.5t-35 62.5t-12 79q0 78 18.5 149t60.5 125t109 86t163 32q31 0 79.5 -4.5t124.5 -18.5zM244 65q27 0 55 15t55 39t51.5 55t45.5 63l34 239q-37 8 -65 11t-53 3q-62 0 -106.5 -23t-73 -62
t-42.5 -91t-14 -110q0 -40 10 -67t26 -43t36.5 -22.5t40.5 -6.5zM483 800h84l-19 -130h-85zM260 800h84l-19 -130h-84z" />
    <glyph glyph-name="ae" unicode="&#xe6;" horiz-adv-x="1015" 
d="M578 515q35 27 80 42.5t102 15.5q56 0 96.5 -13.5t66.5 -37.5t38 -57t12 -73q0 -32 -8 -71.5t-21 -76.5h-396v-13q0 -44 13.5 -75t37 -51.5t55 -30t67.5 -9.5q44 0 91 8t100 22l-16 -88q-38 -12 -85 -18t-115 -6q-44 0 -82.5 10.5t-69 30.5t-52 50t-31.5 68
q-23 -33 -47.5 -62t-53 -50.5t-61.5 -34t-73 -12.5q-48 0 -84 15t-59.5 41.5t-35.5 62.5t-12 79q0 77 18.5 148t60 125t108.5 86.5t164 32.5q32 0 80 -5.5t117 -16.5zM246 65q24 0 50.5 14t53.5 37t52.5 53.5t48.5 63.5l4 29l2 18t3 18l25 178q-38 8 -65.5 11t-54.5 3
q-61 0 -105 -22.5t-72.5 -61.5t-42.5 -91t-14 -111q0 -40 10 -67t26.5 -43t37 -22.5t41.5 -6.5zM752 490q-38 0 -69.5 -13t-56.5 -36t-42 -54.5t-26 -69.5h306q7 21 9 36t2 30q0 31 -10.5 52t-28 33t-39.5 17t-45 5z" />
    <glyph glyph-name="ccedilla" unicode="&#xe7;" horiz-adv-x="534" 
d="M356 -64q0 -32 -12.5 -57.5t-34.5 -43t-50.5 -26.5t-61.5 -9h-35l10 71h24q40 0 66 17t26 46q0 17 -10 29.5t-25 21.5q-46 4 -85.5 20.5t-69 45.5t-46 70.5t-16.5 95.5q0 67 18 131.5t58 114t102.5 80t152.5 30.5q35 0 74.5 -4.5t75.5 -12.5l-13 -83q-21 5 -39 8t-34.5 5
t-33.5 3t-37 1q-56 0 -98.5 -19t-71 -53t-43 -81t-14.5 -102q0 -45 13.5 -77t36.5 -52.5t53 -30.5t63 -10q44 0 78.5 5.5t74.5 19.5l-9 -82q-24 -9 -49 -14.5t-54 -8.5q16 -22 16 -49z" />
    <glyph glyph-name="egrave" unicode="&#xe8;" horiz-adv-x="599" 
d="M133 244v-13q0 -44 13.5 -75t37 -51.5t55.5 -30t68 -9.5q44 0 90 8t98 22l-15 -87q-37 -12 -88.5 -18.5t-104.5 -6.5q-59 0 -106 16.5t-79 47t-49 74t-17 97.5q0 63 18.5 126.5t56.5 114t96.5 82.5t138.5 32q56 0 96 -13.5t65.5 -37.5t37.5 -57t12 -73q0 -32 -8 -71.5
t-22 -76.5h-394zM337 490q-38 0 -69 -13t-56 -36t-42.5 -54.5t-26.5 -69.5h305q6 21 9 36t3 30q0 31 -10.5 52t-28 33t-39.5 17t-45 5zM331 641l-136 170h113l120 -170h-97z" />
    <glyph glyph-name="eacute" unicode="&#xe9;" horiz-adv-x="599" 
d="M133 244v-13q0 -44 13.5 -75t37 -51.5t55.5 -30t68 -9.5q44 0 90 8t98 22l-15 -87q-37 -12 -88.5 -18.5t-104.5 -6.5q-59 0 -106 16.5t-79 47t-49 74t-17 97.5q0 63 18.5 126.5t56.5 114t96.5 82.5t138.5 32q56 0 96 -13.5t65.5 -37.5t37.5 -57t12 -73q0 -32 -8 -71.5
t-22 -76.5h-394zM337 490q-38 0 -69 -13t-56 -36t-42.5 -54.5t-26.5 -69.5h305q6 21 9 36t3 30q0 31 -10.5 52t-28 33t-39.5 17t-45 5zM284 641l120 170h113l-136 -170h-97z" />
    <glyph glyph-name="ecircumflex" unicode="&#xea;" horiz-adv-x="599" 
d="M133 244v-13q0 -44 13.5 -75t37 -51.5t55.5 -30t68 -9.5q44 0 90 8t98 22l-15 -87q-37 -12 -88.5 -18.5t-104.5 -6.5q-59 0 -106 16.5t-79 47t-49 74t-17 97.5q0 63 18.5 126.5t56.5 114t96.5 82.5t138.5 32q56 0 96 -13.5t65.5 -37.5t37.5 -57t12 -73q0 -32 -8 -71.5
t-22 -76.5h-394zM337 490q-38 0 -69 -13t-56 -36t-42.5 -54.5t-26.5 -69.5h305q6 21 9 36t3 30q0 31 -10.5 52t-28 33t-39.5 17t-45 5zM442 805l90 -164h-106l-52 116l-88 -116h-107l139 164h124z" />
    <glyph glyph-name="edieresis" unicode="&#xeb;" horiz-adv-x="599" 
d="M133 244v-13q0 -44 13.5 -75t37 -51.5t55.5 -30t68 -9.5q44 0 90 8t98 22l-15 -87q-37 -12 -88.5 -18.5t-104.5 -6.5q-59 0 -106 16.5t-79 47t-49 74t-17 97.5q0 63 18.5 126.5t56.5 114t96.5 82.5t138.5 32q56 0 96 -13.5t65.5 -37.5t37.5 -57t12 -73q0 -32 -8 -71.5
t-22 -76.5h-394zM337 490q-38 0 -69 -13t-56 -36t-42.5 -54.5t-26.5 -69.5h305q6 21 9 36t3 30q0 31 -10.5 52t-28 33t-39.5 17t-45 5zM453 800h84l-19 -130h-85zM230 800h84l-19 -130h-84z" />
    <glyph glyph-name="iacute" unicode="&#xed;" horiz-adv-x="314" 
d="M158 641l120 170h113l-136 -170h-97zM159 556h104l-78 -556h-104z" />
    <glyph glyph-name="icircumflex" unicode="&#xee;" horiz-adv-x="314" 
d="M290 805l90 -164h-106l-52 116l-88 -116h-107l139 164h124zM159 556h104l-78 -556h-104z" />
    <glyph glyph-name="idieresis" unicode="&#xef;" horiz-adv-x="314" 
d="M73 800h84l-19 -130h-84zM296 800h84l-19 -130h-85zM159 556h104l-78 -556h-104z" />
    <glyph glyph-name="ntilde" unicode="&#xf1;" horiz-adv-x="656" 
d="M113 556l95 10l-13 -94q48 42 104.5 71.5t122.5 29.5q94 0 135.5 -45t27.5 -149l-53 -379h-94l51 371q10 67 -15 93t-84 26q-46 0 -96.5 -27.5t-110.5 -75.5l-54 -387h-94zM321 722q-23 0 -50.5 -7t-49.5 -18l3 67q17 9 44 17.5t55 8.5q18 0 34 -5t31 -10.5t30.5 -10.5
t31.5 -5q21 0 46.5 6.5t47.5 18.5l-4 -66q-20 -13 -46 -20t-47 -7q-18 0 -34.5 5t-31.5 10.5t-30 10.5t-30 5z" />
    <glyph glyph-name="oacute" unicode="&#xf3;" horiz-adv-x="660" 
d="M306 641l120 170h113l-136 -170h-97zM38 213q0 74 18.5 139.5t57.5 114.5t100 77.5t147 28.5q65 0 111.5 -17.5t76 -48t43.5 -73t14 -93.5q0 -78 -20 -143.5t-60.5 -113.5t-100.5 -74.5t-140 -26.5q-66 0 -113 17t-77 47t-43.5 72.5t-13.5 93.5zM353 490q-58 0 -99 -20.5
t-67.5 -55.5t-39 -83t-12.5 -102q0 -36 8 -66t27 -52t48.5 -34t73.5 -12q48 0 88 18.5t68.5 52.5t44.5 82t16 108q0 81 -41 122.5t-115 41.5z" />
    <glyph glyph-name="ocircumflex" unicode="&#xf4;" horiz-adv-x="660" 
d="M448 800l90 -164h-106l-52 116l-88 -116h-107l139 164h124zM38 213q0 74 18.5 139.5t57.5 114.5t100 77.5t147 28.5q65 0 111.5 -17.5t76 -48t43.5 -73t14 -93.5q0 -78 -20 -143.5t-60.5 -113.5t-100.5 -74.5t-140 -26.5q-66 0 -113 17t-77 47t-43.5 72.5t-13.5 93.5z
M353 490q-58 0 -99 -20.5t-67.5 -55.5t-39 -83t-12.5 -102q0 -36 8 -66t27 -52t48.5 -34t73.5 -12q48 0 88 18.5t68.5 52.5t44.5 82t16 108q0 81 -41 122.5t-115 41.5z" />
    <glyph glyph-name="odieresis" unicode="&#xf6;" horiz-adv-x="660" 
d="M241 800h84l-19 -130h-84zM464 800h84l-19 -130h-85zM38 213q0 74 18.5 139.5t57.5 114.5t100 77.5t147 28.5q65 0 111.5 -17.5t76 -48t43.5 -73t14 -93.5q0 -78 -20 -143.5t-60.5 -113.5t-100.5 -74.5t-140 -26.5q-66 0 -113 17t-77 47t-43.5 72.5t-13.5 93.5zM353 490
q-58 0 -99 -20.5t-67.5 -55.5t-39 -83t-12.5 -102q0 -36 8 -66t27 -52t48.5 -34t73.5 -12q48 0 88 18.5t68.5 52.5t44.5 82t16 108q0 81 -41 122.5t-115 41.5z" />
    <glyph glyph-name="ugrave" unicode="&#xf9;" 
d="M150 184q-10 -67 12.5 -93t80.5 -26q27 0 56 11t57.5 27.5t55 36.5t47.5 37l53 379h94l-78 -556h-94l12 87q-49 -43 -108 -73.5t-124 -30.5q-94 0 -133.5 45.5t-25.5 149.5l53 378h94zM337 641l-136 170h113l120 -170h-97z" />
    <glyph glyph-name="uacute" unicode="&#xfa;" 
d="M150 184q-10 -67 12.5 -93t80.5 -26q27 0 56 11t57.5 27.5t55 36.5t47.5 37l53 379h94l-78 -556h-94l12 87q-49 -43 -108 -73.5t-124 -30.5q-94 0 -133.5 45.5t-25.5 149.5l53 378h94zM307 641l120 170h113l-136 -170h-97z" />
    <glyph glyph-name="ucircumflex" unicode="&#xfb;" 
d="M150 184q-10 -67 12.5 -93t80.5 -26q27 0 56 11t57.5 27.5t55 36.5t47.5 37l53 379h94l-78 -556h-94l12 87q-49 -43 -108 -73.5t-124 -30.5q-94 0 -133.5 45.5t-25.5 149.5l53 378h94zM449 805l90 -164h-106l-52 116l-88 -116h-107l139 164h124z" />
    <glyph glyph-name="udieresis" unicode="&#xfc;" 
d="M150 184q-10 -67 12.5 -93t80.5 -26q27 0 56 11t57.5 27.5t55 36.5t47.5 37l53 379h94l-78 -556h-94l12 87q-49 -43 -108 -73.5t-124 -30.5q-94 0 -133.5 45.5t-25.5 149.5l53 378h94zM466 800h84l-19 -130h-85zM243 800h84l-19 -130h-84z" />
    <glyph glyph-name="ydieresis" unicode="&#xff;" horiz-adv-x="658" 
d="M452 120q-48 -39 -102.5 -63.5t-117.5 -24.5q-93 0 -139 45t-32 140l48 339h94l-45 -319q-9 -68 13.5 -95t79.5 -27q29 0 58 8.5t56.5 21.5t52.5 28.5t46 29.5l50 353h94l-75 -526q-17 -119 -90 -183t-212 -64q-47 0 -102.5 4.5t-99.5 13.5v87q18 -4 43.5 -7.5t54 -6.5
t56 -5t50.5 -2q43 0 78.5 8t62 28.5t43.5 55.5t25 89zM470 801h84l-19 -130h-85zM247 801h84l-19 -130h-84z" />
    <glyph glyph-name="OE" unicode="&#x152;" horiz-adv-x="1295" 
d="M699 0l22 151q-23 -36 -54 -66.5t-70.5 -53t-88 -35t-106.5 -12.5q-70 0 -132 26.5t-109 74.5t-74.5 114.5t-27.5 146.5q0 101 33.5 187t94 149t144.5 98.5t186 35.5q47 0 90.5 -12.5t79.5 -35t62 -54.5t39 -71l23 157h501l-14 -93h-398l-37 -263h287l-12 -88h-287
l-38 -263h398l-11 -93h-501zM503 722q-75 0 -137 -27.5t-107 -76t-69.5 -115t-24.5 -143.5q0 -57 17 -108t49 -90t79 -61.5t106 -22.5q76 0 139 33t107.5 85.5t69 118t24.5 131.5q0 51 -17 100.5t-49.5 88.5t-79.5 63t-107 24z" />
    <glyph glyph-name="oe" unicode="&#x153;" horiz-adv-x="1082" 
d="M38 213q0 74 19 139.5t59 114.5t101.5 77.5t147.5 28.5q88 0 143.5 -34t78.5 -91q38 55 97.5 90t144.5 35q56 0 96 -13.5t65.5 -37.5t37.5 -57t12 -73q0 -32 -8 -71.5t-22 -76.5h-394v-13q0 -44 13.5 -75t37 -51.5t55.5 -30t68 -9.5q44 0 90 8t98 22l-15 -87
q-37 -12 -88.5 -18.5t-104.5 -6.5q-85 0 -143 32t-85 91q-41 -59 -107 -91t-154 -32q-66 0 -112.5 17t-75.5 47t-42 72.5t-13 93.5zM353 491q-58 0 -99 -20.5t-67.5 -56t-39 -83.5t-12.5 -102q0 -36 8 -66t27 -52t48.5 -34t73.5 -12q48 0 88 18.5t68.5 52.5t44.5 82t16 108
q0 81 -41 123t-115 42zM820 490q-38 0 -69 -13t-56 -36t-42.5 -54.5t-26.5 -69.5h305q6 21 9 36t3 30q0 31 -10.5 52t-28 33t-39.5 17t-45 5z" />
    <glyph glyph-name="Ydieresis" unicode="&#x178;" horiz-adv-x="712" 
d="M358 383l315 417h107l-382 -504l-42 -296h-104l42 295l-234 505h115zM308 961h73l-16 -109h-73zM506 961h72l-16 -109h-72z" />
    <glyph glyph-name="tilde" unicode="&#x2dc;" horiz-adv-x="543" 
d="M321 722q-23 0 -50.5 -7t-49.5 -18l3 67q17 9 44 17.5t55 8.5q18 0 34 -5t31 -10.5t30.5 -10.5t31.5 -5q21 0 46.5 6.5t47.5 18.5l-4 -66q-20 -13 -46 -20t-47 -7q-18 0 -34.5 5t-31.5 10.5t-30 10.5t-30 5z" />
    <glyph glyph-name="endash" unicode="&#x2013;" horiz-adv-x="595" 
d="M66 271l11 80h444l-11 -80h-444z" />
    <glyph glyph-name="emdash" unicode="&#x2014;" horiz-adv-x="993" 
d="M66 271l11 80h842l-11 -80h-842z" />
    <glyph glyph-name="quoteleft" unicode="&#x2018;" horiz-adv-x="262" 
d="M244 809q-14 -14 -29 -32t-27.5 -37t-21 -37.5t-10.5 -32.5q-3 -20 1.5 -33.5t19.5 -23.5q-2 -11 -8 -22t-15.5 -19.5t-20.5 -13.5t-23 -5q-26 0 -41 17.5t-11 42.5q4 27 18 59t35.5 62.5t48.5 58t57 45.5z" />
    <glyph glyph-name="quoteright" unicode="&#x2019;" horiz-adv-x="254" 
d="M48 582q14 13 29 31.5t27.5 37.5t21 37.5t10.5 32.5q3 20 -1.5 33.5t-19.5 23.5q1 11 7.5 22t16 19.5t20.5 13.5t23 5q26 0 41 -17.5t11 -42.5q-4 -27 -18 -59t-35.5 -62.5t-48.5 -58t-57 -45.5z" />
    <glyph glyph-name="quotedblleft" unicode="&#x201c;" horiz-adv-x="487" 
d="M244 809q-14 -14 -29 -32t-27.5 -37t-21 -37.5t-10.5 -32.5q-3 -20 1.5 -33.5t19.5 -23.5q-2 -11 -8 -22t-15.5 -19.5t-20.5 -13.5t-23 -5q-26 0 -41 17.5t-11 42.5q4 27 18 59t35.5 62.5t48.5 58t57 45.5zM467 809q-14 -14 -29 -32t-27.5 -37t-21 -37.5t-10.5 -32.5
q-3 -20 1.5 -33.5t19.5 -23.5q-2 -11 -8 -22t-15.5 -19.5t-20.5 -13.5t-23 -5q-26 0 -41 17.5t-11 42.5q4 27 18 59t35.5 62.5t48.5 58t57 45.5z" />
    <glyph glyph-name="quotedblright" unicode="&#x201d;" horiz-adv-x="478" 
d="M48 582q14 13 29 31.5t27.5 37.5t21 37.5t10.5 32.5q3 20 -1.5 33.5t-19.5 23.5q1 11 7.5 22t16 19.5t20.5 13.5t23 5q26 0 41 -17.5t11 -42.5q-4 -27 -18 -59t-35.5 -62.5t-48.5 -58t-57 -45.5zM253 582q14 13 29 31.5t27.5 37.5t21 37.5t10.5 32.5q3 20 -1.5 33.5
t-19.5 23.5q1 11 7.5 22t16 19.5t20.5 13.5t23 5q26 0 41 -17.5t11 -42.5q-4 -27 -18 -59t-35.5 -62.5t-48.5 -58t-57 -45.5z" />
    <glyph glyph-name="quotedblbase" unicode="&#x201e;" horiz-adv-x="478" 
d="M48 -102q14 13 29 31.5t27.5 37.5t21 37.5t10.5 32.5q3 20 -1.5 33.5t-19.5 23.5q1 11 7.5 22t16 19.5t20.5 13.5t23 5q26 0 41 -17.5t11 -42.5q-4 -27 -18 -59t-35.5 -62.5t-48.5 -58t-57 -45.5zM253 -102q14 13 29 31.5t27.5 37.5t21 37.5t10.5 32.5q3 20 -1.5 33.5
t-19.5 23.5q1 11 7.5 22t16 19.5t20.5 13.5t23 5q26 0 41 -17.5t11 -42.5q-4 -27 -18 -59t-35.5 -62.5t-48.5 -58t-57 -45.5z" />
    <glyph glyph-name="bullet" unicode="&#x2022;" horiz-adv-x="407" 
d="M104 529h253l-35 -245h-253z" />
    <glyph glyph-name="ellipsis" unicode="&#x2026;" horiz-adv-x="750" 
d="M52 154h109l-21 -154h-109zM296 154h109l-21 -154h-109zM540 154h109l-21 -154h-109z" />
    <glyph glyph-name="guilsinglleft" unicode="&#x2039;" horiz-adv-x="319" 
d="M146 280l79 -234h-90l-92 234l161 230h89z" />
    <glyph glyph-name="guilsinglright" unicode="&#x203a;" horiz-adv-x="319" 
d="M76 510h88l96 -230l-157 -234h-89l144 234z" />
    <glyph glyph-name="Euro" unicode="&#x20ac;" horiz-adv-x="769" 
d="M243 457q-9 -48 -9 -102v-10h355l-9 -69h-338q9 -44 29 -80t50 -62.5t70.5 -41t90.5 -14.5q49 0 96.5 12.5t90.5 34.5l8 -87q-46 -25 -103 -39.5t-117 -14.5q-70 0 -126.5 22t-98 61t-67.5 92.5t-35 116.5h-94l9 69h80q0 29 3 57t8 55h-75l9 69h84q22 65 61 118.5
t92.5 91.5t121.5 59t149 21q26 0 53.5 -3t54 -9t50.5 -15t43 -21l-38 -88q-36 21 -79.5 32t-90.5 11q-116 0 -194.5 -51.5t-114.5 -145.5h352l-9 -69h-362z" />
    </font>
</defs>
</svg>
